<svg xmlns="http://www.w3.org/2000/svg" width="256" height="256" viewBox="0 0 256 256" role="img" aria-label="Round mochi shape"><title>Round mochi shape</title><defs><linearGradient id="body" x1="0" y1="0" x2=".8" y2="1"><stop stop-color="#e7e9c2"/><stop offset="1" stop-color="#bcc78b"/></linearGradient><clipPath id="round"><ellipse cx="128" cy="137" rx="85" ry="70"/></clipPath><clipPath id="macro"><ellipse cx="128" cy="130" rx="91" ry="81"/></clipPath></defs><g stroke-linecap="round" stroke-linejoin="round"><ellipse cx="128" cy="130" rx="83" ry="83" fill="url(#body)" stroke="#704154" stroke-width="3"/><path d="M73 103 Q76 76 103 66" fill="none" stroke="#ffffff" stroke-width="7" stroke-linecap="round" stroke-linejoin="round"/><path d="M50 103 Q60 53 128 47 Q190 54 207 109 Q185 144 158 126 Q131 152 104 127 Q75 140 50 103" fill="#edf2e7" stroke="#704154" stroke-width="4" stroke-linecap="round" stroke-linejoin="round"/><g transform="translate(80 153) rotate(-25) scale(0.65)"><path d="M-8 -12 C10 -20 17 -7 8 5 C-2 22 -18 9 -8 -12" fill="#797052" stroke="#704154" stroke-width="1.4" stroke-linecap="round" stroke-linejoin="round"/></g><g transform="translate(138 175) rotate(-25) scale(0.75)"><path d="M-8 -12 C10 -20 17 -7 8 5 C-2 22 -18 9 -8 -12" fill="#797052" stroke="#704154" stroke-width="1.4" stroke-linecap="round" stroke-linejoin="round"/></g><g transform="translate(169 150) rotate(-25) scale(0.7)"><path d="M-8 -12 C10 -20 17 -7 8 5 C-2 22 -18 9 -8 -12" fill="#797052" stroke="#704154" stroke-width="1.4" stroke-linecap="round" stroke-linejoin="round"/></g></g></svg>