<svg xmlns="http://www.w3.org/2000/svg" width="256" height="256" viewBox="0 0 256 256" role="img" aria-label="Frosted blue appearance"><title>Frosted blue appearance</title><defs><linearGradient id="body" x1="0" y1="0" x2=".8" y2="1"><stop stop-color="#b6d9d8"/><stop offset="1" stop-color="#6daeb7"/></linearGradient><clipPath id="round"><ellipse cx="128" cy="137" rx="85" ry="70"/></clipPath><clipPath id="macro"><ellipse cx="128" cy="130" rx="91" ry="81"/></clipPath></defs><g stroke-linecap="round" stroke-linejoin="round"><ellipse cx="128" cy="130" rx="91" ry="81" fill="url(#body)" stroke="#704154" stroke-width="3"/><g clip-path="url(#macro)"><path d="M51 135 Q63 82 115 69 Q80 105 93 179 Q64 176 51 135" fill="#a1c9cc" stroke="none" stroke-width="4" stroke-linecap="round" stroke-linejoin="round"/><ellipse cx="77.18998561425542" cy="86.86058609629981" rx="1.4" ry="1.4" fill="#cbe2df" stroke="none" stroke-width="0"/><ellipse cx="164.81349238735856" cy="144.76114168093773" rx="1.4" ry="1.4" fill="#cbe2df" stroke="none" stroke-width="0"/><ellipse cx="143.34247401329048" cy="121.87542497186223" rx="1.4" ry="1.4" fill="#cbe2df" stroke="none" stroke-width="0"/><ellipse cx="162.09135640964996" cy="113.99994265066925" rx="1.4" ry="1.4" fill="#cbe2df" stroke="none" stroke-width="0"/><ellipse cx="134.86003559011442" cy="112.82561606960371" rx="1.4" ry="1.4" fill="#cbe2df" stroke="none" stroke-width="0"/><ellipse cx="187.72526000134894" cy="161.59486933343578" rx="1.4" ry="1.4" fill="#cbe2df" stroke="none" stroke-width="0"/><ellipse cx="179.64972921428853" cy="139.02450098181725" rx="1.4" ry="1.4" fill="#cbe2df" stroke="none" stroke-width="0"/><ellipse cx="167.6109843411541" cy="109.62336208263878" rx="1.4" ry="1.4" fill="#cbe2df" stroke="none" stroke-width="0"/><ellipse cx="183.54418833991804" cy="86.41826340265106" rx="1.4" ry="1.4" fill="#cbe2df" stroke="none" stroke-width="0"/><ellipse cx="158.45919568528916" cy="88.88992974173743" rx="1.4" ry="1.4" fill="#cbe2df" stroke="none" stroke-width="0"/><ellipse cx="145.84096432667138" cy="175.24821591781802" rx="1.4" ry="1.4" fill="#cbe2df" stroke="none" stroke-width="0"/><ellipse cx="89.91974390945688" cy="93.74930876051076" rx="1.4" ry="1.4" fill="#cbe2df" stroke="none" stroke-width="0"/><ellipse cx="181.9097349691001" cy="136.97817465965636" rx="1.4" ry="1.4" fill="#cbe2df" stroke="none" stroke-width="0"/><ellipse cx="79.20306188726681" cy="131.72357649129117" rx="1.4" ry="1.4" fill="#cbe2df" stroke="none" stroke-width="0"/><ellipse cx="168.62425925202479" cy="136.12281413876917" rx="1.4" ry="1.4" fill="#cbe2df" stroke="none" stroke-width="0"/><ellipse cx="85.83768868810148" cy="107.148412327806" rx="1.4" ry="1.4" fill="#cbe2df" stroke="none" stroke-width="0"/><ellipse cx="72.48127107405617" cy="119.65878685109783" rx="1.4" ry="1.4" fill="#cbe2df" stroke="none" stroke-width="0"/><ellipse cx="183.09750772835105" cy="165.24415601437795" rx="1.4" ry="1.4" fill="#cbe2df" stroke="none" stroke-width="0"/><ellipse cx="89.08559453152702" cy="81.12052242795471" rx="1.4" ry="1.4" fill="#cbe2df" stroke="none" stroke-width="0"/><ellipse cx="155.74990999035072" cy="170.62325351434447" rx="1.4" ry="1.4" fill="#cbe2df" stroke="none" stroke-width="0"/><ellipse cx="77.46202682553121" cy="83.39497706969269" rx="1.4" ry="1.4" fill="#cbe2df" stroke="none" stroke-width="0"/><ellipse cx="113.57937130903883" cy="118.75745626082062" rx="1.4" ry="1.4" fill="#cbe2df" stroke="none" stroke-width="0"/><ellipse cx="171.21006967809808" cy="120.03316213469952" rx="1.4" ry="1.4" fill="#cbe2df" stroke="none" stroke-width="0"/><ellipse cx="92.68875942731393" cy="119.1152673457982" rx="1.4" ry="1.4" fill="#cbe2df" stroke="none" stroke-width="0"/><ellipse cx="131.12853578440263" cy="173.5348365554819" rx="1.4" ry="1.4" fill="#cbe2df" stroke="none" stroke-width="0"/><ellipse cx="137.52742686379133" cy="168.875368661189" rx="1.4" ry="1.4" fill="#cbe2df" stroke="none" stroke-width="0"/><ellipse cx="125.72043464428862" cy="129.14331693429267" rx="1.4" ry="1.4" fill="#cbe2df" stroke="none" stroke-width="0"/><ellipse cx="70.8145735787084" cy="168.8523079312872" rx="1.4" ry="1.4" fill="#cbe2df" stroke="none" stroke-width="0"/><ellipse cx="71.17643825503183" cy="187.57558945479104" rx="1.4" ry="1.4" fill="#cbe2df" stroke="none" stroke-width="0"/><ellipse cx="100.64804757637103" cy="129.28247946035117" rx="1.4" ry="1.4" fill="#cbe2df" stroke="none" stroke-width="0"/><ellipse cx="143.83023844873242" cy="95.87171441134706" rx="1.4" ry="1.4" fill="#cbe2df" stroke="none" stroke-width="0"/><ellipse cx="69.02454806900641" cy="167.1679155396996" rx="1.4" ry="1.4" fill="#cbe2df" stroke="none" stroke-width="0"/><ellipse cx="109.3613614365895" cy="178.8585555595928" rx="1.4" ry="1.4" fill="#cbe2df" stroke="none" stroke-width="0"/><ellipse cx="157.84875256415398" cy="111.3962771637598" rx="1.4" ry="1.4" fill="#cbe2df" stroke="none" stroke-width="0"/><ellipse cx="68.82946677508153" cy="108.4787014418398" rx="1.4" ry="1.4" fill="#cbe2df" stroke="none" stroke-width="0"/><ellipse cx="188.53860834921943" cy="100.331786755356" rx="1.4" ry="1.4" fill="#cbe2df" stroke="none" stroke-width="0"/><ellipse cx="70.46480665716808" cy="78.45781256916234" rx="1.4" ry="1.4" fill="#cbe2df" stroke="none" stroke-width="0"/><ellipse cx="102.64591823094815" cy="138.76406401197892" rx="1.4" ry="1.4" fill="#cbe2df" stroke="none" stroke-width="0"/><ellipse cx="175.55943286140246" cy="164.7479951127898" rx="1.4" ry="1.4" fill="#cbe2df" stroke="none" stroke-width="0"/><ellipse cx="80.32501862567733" cy="113.78018992114812" rx="1.4" ry="1.4" fill="#cbe2df" stroke="none" stroke-width="0"/><ellipse cx="135.0087386132309" cy="136.32135061454028" rx="1.4" ry="1.4" fill="#cbe2df" stroke="none" stroke-width="0"/><ellipse cx="100.68261607000022" cy="90.98633059844724" rx="1.4" ry="1.4" fill="#cbe2df" stroke="none" stroke-width="0"/><ellipse cx="133.94489435718424" cy="176.19008383876644" rx="1.4" ry="1.4" fill="#cbe2df" stroke="none" stroke-width="0"/><ellipse cx="123.73384704948694" cy="78.49824338198232" rx="1.4" ry="1.4" fill="#cbe2df" stroke="none" stroke-width="0"/><ellipse cx="155.87013869400835" cy="138.09790784213692" rx="1.4" ry="1.4" fill="#cbe2df" stroke="none" stroke-width="0"/><ellipse cx="144.51483617220947" cy="130.25521461546305" rx="1.4" ry="1.4" fill="#cbe2df" stroke="none" stroke-width="0"/><ellipse cx="121.0307639878447" cy="111.10476022923831" rx="1.4" ry="1.4" fill="#cbe2df" stroke="none" stroke-width="0"/><ellipse cx="91.72246837168495" cy="116.73310077085625" rx="1.4" ry="1.4" fill="#cbe2df" stroke="none" stroke-width="0"/><ellipse cx="139.87360404332867" cy="115.28778823110042" rx="1.4" ry="1.4" fill="#cbe2df" stroke="none" stroke-width="0"/><ellipse cx="71.31437022504542" cy="117.55330477654934" rx="1.4" ry="1.4" fill="#cbe2df" stroke="none" stroke-width="0"/><ellipse cx="122.53524550613656" cy="81.76641509408364" rx="1.4" ry="1.4" fill="#cbe2df" stroke="none" stroke-width="0"/><ellipse cx="66.19786128042233" cy="152.54258872091305" rx="1.4" ry="1.4" fill="#cbe2df" stroke="none" stroke-width="0"/><ellipse cx="104.28610291914083" cy="108.43108407920226" rx="1.4" ry="1.4" fill="#cbe2df" stroke="none" stroke-width="0"/><ellipse cx="185.28661541017937" cy="112.70959662389942" rx="1.4" ry="1.4" fill="#cbe2df" stroke="none" stroke-width="0"/><ellipse cx="88.86540586553747" cy="156.96350207923933" rx="1.4" ry="1.4" fill="#cbe2df" stroke="none" stroke-width="0"/><ellipse cx="72.8570002669585" cy="124.20583643880673" rx="1.4" ry="1.4" fill="#cbe2df" stroke="none" stroke-width="0"/><ellipse cx="119.95323655371612" cy="78.15305535896914" rx="1.4" ry="1.4" fill="#cbe2df" stroke="none" stroke-width="0"/><ellipse cx="117.74215462130815" cy="87.9666755971266" rx="1.4" ry="1.4" fill="#cbe2df" stroke="none" stroke-width="0"/><ellipse cx="174.7200550533089" cy="158.36982735421043" rx="1.4" ry="1.4" fill="#cbe2df" stroke="none" stroke-width="0"/><ellipse cx="130.70232347771525" cy="103.36416755674873" rx="1.4" ry="1.4" fill="#cbe2df" stroke="none" stroke-width="0"/><ellipse cx="154.8851820396958" cy="147.77490662655327" rx="1.4" ry="1.4" fill="#cbe2df" stroke="none" stroke-width="0"/><ellipse cx="84.09092239012534" cy="121.05938995262841" rx="1.4" ry="1.4" fill="#cbe2df" stroke="none" stroke-width="0"/><ellipse cx="167.785230538796" cy="90.28515580284875" rx="1.4" ry="1.4" fill="#cbe2df" stroke="none" stroke-width="0"/><ellipse cx="145.4491098326107" cy="90.96007297700271" rx="1.4" ry="1.4" fill="#cbe2df" stroke="none" stroke-width="0"/><ellipse cx="152.48467860956225" cy="88.49258911190554" rx="1.4" ry="1.4" fill="#cbe2df" stroke="none" stroke-width="0"/></g><ellipse cx="128" cy="130" rx="91" ry="81" fill="none" stroke="#704154" stroke-width="3"/></g></svg>