<svg xmlns="http://www.w3.org/2000/svg" width="256" height="256" viewBox="0 0 256 256" role="img" aria-label="Citrus slices and stars"><title>Citrus slices and stars</title><defs><linearGradient id="body" x1="0" y1="0" x2=".8" y2="1"><stop stop-color="#f4edbe"/><stop offset="1" stop-color="#ccd7b0"/></linearGradient><clipPath id="round"><ellipse cx="128" cy="137" rx="85" ry="70"/></clipPath><clipPath id="macro"><ellipse cx="128" cy="130" rx="91" ry="81"/></clipPath></defs><g stroke-linecap="round" stroke-linejoin="round"><ellipse cx="128" cy="130" rx="91" ry="81" fill="url(#body)" stroke="#704154" stroke-width="3"/><g clip-path="url(#macro)"><g><ellipse cx="107" cy="122" rx="43" ry="43" fill="#f4d65b" stroke="#704154" stroke-width="2.5"/><ellipse cx="107" cy="122" rx="36" ry="36" fill="#fff0a4" stroke="#fff9df" stroke-width="2"/><path d="M107 122 L142 122" fill="none" stroke="#fff9df" stroke-width="3" stroke-linecap="round" stroke-linejoin="round"/><path d="M107 122 L124.5 152.31088913245534" fill="none" stroke="#fff9df" stroke-width="3" stroke-linecap="round" stroke-linejoin="round"/><path d="M107 122 L89.5 152.31088913245534" fill="none" stroke="#fff9df" stroke-width="3" stroke-linecap="round" stroke-linejoin="round"/><path d="M107 122 L72 122" fill="none" stroke="#fff9df" stroke-width="3" stroke-linecap="round" stroke-linejoin="round"/><path d="M107 122 L89.49999999999999 91.68911086754466" fill="none" stroke="#fff9df" stroke-width="3" stroke-linecap="round" stroke-linejoin="round"/><path d="M107 122 L124.5 91.68911086754466" fill="none" stroke="#fff9df" stroke-width="3" stroke-linecap="round" stroke-linejoin="round"/><ellipse cx="107" cy="122" rx="3" ry="3" fill="#fff9df" stroke="none" stroke-width="0"/></g><polygon points="173,89 177.29671019425797,100.08608577111913 189.1679607770176,100.7467110956259 179.95222313411756,108.25891422888087 182.99234928897204,119.7532889043741 173,113.31 163.00765071102796,119.7532889043741 166.04777686588244,108.25891422888087 156.8320392229824,100.7467110956259 168.70328980574203,100.08608577111913" fill="#c189b7" stroke="#704154" stroke-width="1.6"/><polygon points="164,150 168.0439625357722,160.43396307870037 179.21690426072246,161.05572809000085 170.54326883211067,168.12603692129963 173.40456403667957,178.94427190999915 164,172.88 154.59543596332043,178.94427190999915 157.45673116788933,168.12603692129963 148.78309573927754,161.05572809000085 159.9560374642278,160.43396307870037" fill="#89b9d1" stroke="#704154" stroke-width="1.6"/></g><ellipse cx="128" cy="130" rx="91" ry="81" fill="none" stroke="#704154" stroke-width="3"/></g></svg>