<svg xmlns="http://www.w3.org/2000/svg" width="256" height="256" viewBox="0 0 256 256" role="img" aria-label="Fine dark speckles"><title>Fine dark speckles</title><defs><linearGradient id="body" x1="0" y1="0" x2=".8" y2="1"><stop stop-color="#ffe88e"/><stop offset="1" stop-color="#e5c44d"/></linearGradient><clipPath id="round"><ellipse cx="128" cy="137" rx="85" ry="70"/></clipPath><clipPath id="macro"><ellipse cx="128" cy="130" rx="91" ry="81"/></clipPath></defs><g stroke-linecap="round" stroke-linejoin="round"><ellipse cx="128" cy="130" rx="91" ry="81" fill="url(#body)" stroke="#704154" stroke-width="3"/><g clip-path="url(#macro)"><ellipse cx="66.22577595404437" cy="85.77254514901142" rx="2" ry="2" fill="#8d7647" stroke="none" stroke-width="0"/><ellipse cx="174.01659777809982" cy="143.15613148735792" rx="2" ry="2" fill="#8d7647" stroke="none" stroke-width="0"/><ellipse cx="147.60383707984147" cy="120.47475153461346" rx="2" ry="2" fill="#8d7647" stroke="none" stroke-width="0"/><ellipse cx="170.6679384404424" cy="112.66958601985971" rx="2" ry="2" fill="#8d7647" stroke="none" stroke-width="0"/><ellipse cx="137.16909140053758" cy="111.50574449755368" rx="2" ry="2" fill="#8d7647" stroke="none" stroke-width="0"/><ellipse cx="202.20170873181814" cy="159.83955800010153" rx="2" ry="2" fill="#8d7647" stroke="none" stroke-width="0"/><ellipse cx="192.26752403345017" cy="137.4707107944796" rx="2" ry="2" fill="#8d7647" stroke="none" stroke-width="0"/><ellipse cx="177.4579569276102" cy="108.33208206404379" rx="2" ry="2" fill="#8d7647" stroke="none" stroke-width="0"/><ellipse cx="197.05832692608965" cy="85.3341717651274" rx="2" ry="2" fill="#8d7647" stroke="none" stroke-width="0"/><ellipse cx="166.19980421603032" cy="87.78376965475763" rx="2" ry="2" fill="#8d7647" stroke="none" stroke-width="0"/><ellipse cx="150.677376751064" cy="173.37099970426607" rx="2" ry="2" fill="#8d7647" stroke="none" stroke-width="0"/><ellipse cx="81.88539925369696" cy="92.59976136086334" rx="2" ry="2" fill="#8d7647" stroke="none" stroke-width="0"/><ellipse cx="195.0476898429406" cy="135.4426552430523" rx="2" ry="2" fill="#8d7647" stroke="none" stroke-width="0"/><ellipse cx="68.70217930576473" cy="130.23497312976178" rx="2" ry="2" fill="#8d7647" stroke="none" stroke-width="0"/><ellipse cx="178.70444590526859" cy="134.59493186967302" rx="2" ry="2" fill="#8d7647" stroke="none" stroke-width="0"/><ellipse cx="76.86382338615658" cy="105.87923007487916" rx="2" ry="2" fill="#8d7647" stroke="none" stroke-width="0"/><ellipse cx="60.433309654592904" cy="118.2779048256416" rx="2" ry="2" fill="#8d7647" stroke="none" stroke-width="0"/><ellipse cx="196.50883887217788" cy="163.45626176424958" rx="2" ry="2" fill="#8d7647" stroke="none" stroke-width="0"/><ellipse cx="80.85926311418007" cy="80.08373204913369" rx="2" ry="2" fill="#8d7647" stroke="none" stroke-width="0"/><ellipse cx="162.86695276590763" cy="168.7873316079664" rx="2" ry="2" fill="#8d7647" stroke="none" stroke-width="0"/><ellipse cx="66.56042982505824" cy="82.33787906014186" rx="2" ry="2" fill="#8d7647" stroke="none" stroke-width="0"/><ellipse cx="110.99049645159539" cy="117.38462182992043" rx="2" ry="2" fill="#8d7647" stroke="none" stroke-width="0"/><ellipse cx="181.8854031754381" cy="118.64893747278256" rx="2" ry="2" fill="#8d7647" stroke="none" stroke-width="0"/><ellipse cx="85.2917278669338" cy="117.73923817306786" rx="2" ry="2" fill="#8d7647" stroke="none" stroke-width="0"/><ellipse cx="132.57875433795562" cy="171.6729183719508" rx="2" ry="2" fill="#8d7647" stroke="none" stroke-width="0"/><ellipse cx="140.45040606260045" cy="167.05505286957123" rx="2" ry="2" fill="#8d7647" stroke="none" stroke-width="0"/><ellipse cx="125.92593150686298" cy="127.6777516045222" rx="2" ry="2" fill="#8d7647" stroke="none" stroke-width="0"/><ellipse cx="58.383007180157165" cy="167.03219803904358" rx="2" ry="2" fill="#8d7647" stroke="none" stroke-width="0"/><ellipse cx="58.828158170872484" cy="185.58830740608755" rx="2" ry="2" fill="#8d7647" stroke="none" stroke-width="0"/><ellipse cx="95.08291566934531" cy="127.8156716080266" rx="2" ry="2" fill="#8d7647" stroke="none" stroke-width="0"/><ellipse cx="148.2038647583613" cy="94.70321696124574" rx="2" ry="2" fill="#8d7647" stroke="none" stroke-width="0"/><ellipse cx="56.18099167219043" cy="165.362844865238" rx="2" ry="2" fill="#8d7647" stroke="none" stroke-width="0"/><ellipse cx="105.80167478310614" cy="176.94910417066785" rx="2" ry="2" fill="#8d7647" stroke="none" stroke-width="0"/><ellipse cx="165.44886228130053" cy="110.08916754622624" rx="2" ry="2" fill="#8d7647" stroke="none" stroke-width="0"/><ellipse cx="55.94101071537807" cy="107.19764160753766" rx="2" ry="2" fill="#8d7647" stroke="none" stroke-width="0"/><ellipse cx="203.2022563026112" cy="99.12346723075461" rx="2" ry="2" fill="#8d7647" stroke="none" stroke-width="0"/><ellipse cx="57.952738348103594" cy="77.44479638550911" rx="2" ry="2" fill="#8d7647" stroke="none" stroke-width="0"/><ellipse cx="97.5406136968013" cy="137.2125991547291" rx="2" ry="2" fill="#8d7647" stroke="none" stroke-width="0"/><ellipse cx="187.23581026601096" cy="162.96453087071131" rx="2" ry="2" fill="#8d7647" stroke="none" stroke-width="0"/><ellipse cx="70.08236418238084" cy="112.45179536828073" rx="2" ry="2" fill="#8d7647" stroke="none" stroke-width="0"/><ellipse cx="137.3520197226253" cy="134.79169569833903" rx="2" ry="2" fill="#8d7647" stroke="none" stroke-width="0"/><ellipse cx="95.1254404035717" cy="89.86145264667539" rx="2" ry="2" fill="#8d7647" stroke="none" stroke-width="0"/><ellipse cx="136.0433224235203" cy="174.30445809020603" rx="2" ry="2" fill="#8d7647" stroke="none" stroke-width="0"/><ellipse cx="123.48211343389266" cy="77.4848662089289" rx="2" ry="2" fill="#8d7647" stroke="none" stroke-width="0"/><ellipse cx="163.01485315532773" cy="136.55239080783213" rx="2" ry="2" fill="#8d7647" stroke="none" stroke-width="0"/><ellipse cx="149.0460286245434" cy="128.77972162782498" rx="2" ry="2" fill="#8d7647" stroke="none" stroke-width="0"/><ellipse cx="120.15689220726927" cy="109.80025344147725" rx="2" ry="2" fill="#8d7647" stroke="none" stroke-width="0"/><ellipse cx="84.10303648897752" cy="115.37834094254504" rx="2" ry="2" fill="#8d7647" stroke="none" stroke-width="0"/><ellipse cx="143.3365764025075" cy="113.94593297903702" rx="2" ry="2" fill="#8d7647" stroke="none" stroke-width="0"/><ellipse cx="58.9978363879527" cy="116.19122169818729" rx="2" ry="2" fill="#8d7647" stroke="none" stroke-width="0"/><ellipse cx="122.00764328135847" cy="80.7238578164579" rx="2" ry="2" fill="#8d7647" stroke="none" stroke-width="0"/><ellipse cx="52.703718241789375" cy="150.86810132161918" rx="2" ry="2" fill="#8d7647" stroke="none" stroke-width="0"/><ellipse cx="99.5583012100542" cy="107.15044939992367" rx="2" ry="2" fill="#8d7647" stroke="none" stroke-width="0"/><ellipse cx="199.20178879823652" cy="111.39076093975746" rx="2" ry="2" fill="#8d7647" stroke="none" stroke-width="0"/><ellipse cx="80.58839610443101" cy="155.24954223924613" rx="2" ry="2" fill="#8d7647" stroke="none" stroke-width="0"/><ellipse cx="60.895516201417195" cy="122.78435575631738" rx="2" ry="2" fill="#8d7647" stroke="none" stroke-width="0"/><ellipse cx="118.83136242719047" cy="77.14276022183549" rx="2" ry="2" fill="#8d7647" stroke="none" stroke-width="0"/><ellipse cx="116.11138068494256" cy="86.86875885072368" rx="2" ry="2" fill="#8d7647" stroke="none" stroke-width="0"/><ellipse cx="186.20324232748317" cy="156.64331103854784" rx="2" ry="2" fill="#8d7647" stroke="none" stroke-width="0"/><ellipse cx="132.05444554798305" cy="102.12877320356347" rx="2" ry="2" fill="#8d7647" stroke="none" stroke-width="0"/><ellipse cx="161.8032001281972" cy="146.14298781738762" rx="2" ry="2" fill="#8d7647" stroke="none" stroke-width="0"/><ellipse cx="74.71502357515419" cy="119.66600254233708" rx="2" ry="2" fill="#8d7647" stroke="none" stroke-width="0"/><ellipse cx="177.67230740883633" cy="89.16653834032331" rx="2" ry="2" fill="#8d7647" stroke="none" stroke-width="0"/></g><ellipse cx="128" cy="130" rx="91" ry="81" fill="none" stroke="#704154" stroke-width="3"/></g></svg>