<svg xmlns="http://www.w3.org/2000/svg" width="256" height="256" viewBox="0 0 256 256" role="img" aria-label="Strawberry and icing"><title>Strawberry and icing</title><defs><linearGradient id="body" x1="0" y1="0" x2=".8" y2="1"><stop stop-color="#fff0d7"/><stop offset="1" stop-color="#e2c4a6"/></linearGradient><clipPath id="round"><ellipse cx="128" cy="137" rx="85" ry="70"/></clipPath><clipPath id="macro"><ellipse cx="128" cy="130" rx="91" ry="81"/></clipPath></defs><g stroke-linecap="round" stroke-linejoin="round"><ellipse cx="128" cy="130" rx="91" ry="81" fill="#fff0d7" stroke="#704154" stroke-width="3"/><g clip-path="url(#macro)"><path d="M40 116 Q92 108 130 111 T214 111 L214 153 Q202 178 188 157 Q179 138 167 156 Q154 185 138 157 Q126 137 111 161 Q97 185 81 158 Q69 141 58 162 Q45 174 40 154 Z" fill="#efaabe" stroke="#704154" stroke-width="4" stroke-linecap="round" stroke-linejoin="round"/><g transform="translate(131 95) scale(1.25)"><path d="M-22 -12 Q-19 -35 0 -26 Q19 -35 23 -13 Q22 8 0 29 Q-22 8 -22 -12" fill="#ea6d80" stroke="#704154" stroke-width="2.5" stroke-linecap="round" stroke-linejoin="round"/><path d="M-17 -27 L-5 -30 L0 -41 L6 -30 L18 -27 L6 -21 L0 -26 L-6 -21 Z" fill="#83b878" stroke="#704154" stroke-width="1.5" stroke-linecap="round" stroke-linejoin="round"/><path d="M-12 -10 l1 4" fill="none" stroke="#ffe9b4" stroke-width="2" stroke-linecap="round" stroke-linejoin="round"/><path d="M0 -7 l1 4" fill="none" stroke="#ffe9b4" stroke-width="2" stroke-linecap="round" stroke-linejoin="round"/><path d="M12 -4 l1 4" fill="none" stroke="#ffe9b4" stroke-width="2" stroke-linecap="round" stroke-linejoin="round"/><path d="M-5 6 l1 4 M7 5 l1 4" fill="none" stroke="#ffe9b4" stroke-width="2" stroke-linecap="round" stroke-linejoin="round"/></g></g><ellipse cx="128" cy="130" rx="91" ry="81" fill="none" stroke="#704154" stroke-width="3"/></g></svg>